<?xml version="1.0" encoding="UTF-8"?>
<svg version="1.1" xmlns="http://www.w3.org/2000/svg" width="67" height="67">
<path d="M0 0 C22.11 0 44.22 0 67 0 C67 22.11 67 44.22 67 67 C44.89 67 22.78 67 0 67 C0 44.89 0 22.78 0 0 Z " fill="#4182C4" transform="translate(0,0)"/>
<path d="M0 0 C3.10367497 -0.14515677 6.20648027 -0.23400853 9.3125 -0.3125 C10.19357422 -0.35439453 11.07464844 -0.39628906 11.98242188 -0.43945312 C14.41994228 -0.48579382 16.60970257 -0.48611344 19 0 C21.10546875 2.51953125 21.10546875 2.51953125 22 5 C22.66 3.35 23.32 1.7 24 0 C28.95 0 33.9 0 39 0 C37.5749257 4.27522289 36.40104659 7.2296262 34.25 11 C32.2888645 14.80087461 32.2888645 14.80087461 32.375 19 C32.91125 19.99 33.4475 20.98 34 22 C34.87933972 23.7478234 35.75400686 25.4980023 36.625 27.25 C37.07101563 28.10078125 37.51703125 28.9515625 37.9765625 29.828125 C39 32 39 32 39 34 C33.06 34 27.12 34 21 34 C19 30 19 30 19 27 C18.34 27 17.68 27 17 27 C16.7834375 28.7015625 16.7834375 28.7015625 16.5625 30.4375 C16 34 16 34 15 35 C12.46950598 35.07313567 9.96695163 35.09247527 7.4375 35.0625 C6.37112305 35.05573242 6.37112305 35.05573242 5.28320312 35.04882812 C3.52209987 35.03700864 1.76103964 35.01907263 0 35 C0.7539599 29.6635306 3.27540119 25.65815819 5.91796875 21.03515625 C7.29923761 17.16062229 6.67736599 15.69216129 5 12 C4.15781887 10.2339717 3.28385014 8.48266166 2.375 6.75 C0 2.21965318 0 2.21965318 0 0 Z " fill="#E5E8EA" transform="translate(14,16)"/>
</svg>
